# xmcd CD database file
#
# Track frame offsets:
#	183
#	20278
#	42348
#	63420
#	84543
#	100293
#	130448
#	148535
#	169878
#	195618
#	215383
#	235095
#
# Disc length: 3434 seconds
#
# Revision: 0
# Processed by: cddbd v1.5.1PL2 Copyright (c) Steve Scherf et al.
# Submitted via: CDex 1.51
#
DISCID=a60d680c
DTITLE=Various Artsts - Ritmo de Verano
DYEAR=1900
DGENRE=Salsa
TTITLE0=El poder de las mujeres
TTITLE1=Para volver a querer
TTITLE2=El hombre carinoso
TTITLE3=Quien eres tu
TTITLE4=Carne asada
TTITLE5=Quireme tal como soy
TTITLE6=Ven que tengo mambo
TTITLE7=Si me quieres
TTITLE8=Enamorado de ti
TTITLE9=No me busques mas
TTITLE10=La fiesta yo se encendio
TTITLE11=Jinetero
EXTD=
EXTT0=
EXTT1=
EXTT2=
EXTT3=
EXTT4=
EXTT5=
EXTT6=
EXTT7=
EXTT8=
EXTT9=
EXTT10=
EXTT11=
PLAYORDER=
